<svg xmlns="http://www.w3.org/2000/svg">
	<symbol id="credentials" fill="none" viewBox="0 0 24 24">
		<path fill-rule="evenodd" clip-rule="evenodd" d="M10 1C6.68629 1 4 3.68629 4 7V20C4 21.1046 4.89543 22 6 22H18C19.1046 22 20 21.1046 20 20V3C20 1.89543 19.1046 1 18 1H10ZM10 3C7.79086 3 6 4.79086 6 7V20H18V3H10ZM14 9C14 10.1046 13.1046 11 12 11C10.8954 11 10 10.1046 10 9C10 7.89543 10.8954 7 12 7C13.1046 7 14 7.89543 14 9ZM10 16C9.44772 16 9 16.4477 9 17C9 17.5523 9.44772 18 10 18H14C14.5523 18 15 17.5523 15 17C15 16.4477 14.5523 16 14 16H10Z" fill="currentColor"/>
	</symbol>
	<symbol id="login" fill="none" viewBox="0 0 24 24">
		<path fill-rule="evenodd" clip-rule="evenodd" d="M6.87 18.6599C8.581 20.6369 10.851 21.9999 12 21.9999C13.148 21.9999 15.418 20.6379 17.13 18.6599C19.56 15.8539 21 11.9669 21 6.99991C21.0001 6.79991 20.9402 6.60449 20.8281 6.43889C20.7159 6.27328 20.5567 6.1451 20.371 6.07091C17.098 4.76091 14.491 3.45791 12.555 2.16791C12.3907 2.05827 12.1975 1.99976 12 1.99976C11.8025 1.99976 11.6093 2.05827 11.445 2.16791C9.51 3.45791 6.903 4.76191 3.63 6.06991C3.44394 6.14401 3.28441 6.27227 3.17208 6.43809C3.05976 6.6039 2.99981 6.79963 3 6.99991C3 11.9679 4.44 15.8549 6.87 18.6599ZM12 19.9999C11.531 19.9999 9.75 18.9319 8.38 17.3499C6.374 15.0329 5.13 11.8299 5.01 7.66991C7.82 6.51591 10.149 5.35891 12 4.18991C13.851 5.35791 16.18 6.51491 18.99 7.66891C18.87 11.8289 17.626 15.0319 15.62 17.3489C14.25 18.9319 12.468 19.9999 12 19.9999Z" fill="currentColor"/>
	</symbol>
	<symbol id="activity" fill="none" viewBox="0 0 24 24">
		<path fill-rule="evenodd" clip-rule="evenodd" d="M2.08696 12C2.08696 9.3709 3.13136 6.84948 4.99042 4.99042C6.84948 3.13136 9.3709 2.08696 12 2.08696C14.6291 2.08696 17.1505 3.13136 19.0096 4.99042C20.8686 6.84948 21.913 9.3709 21.913 12C21.913 14.6291 20.8686 17.1505 19.0096 19.0096C17.1505 20.8686 14.6291 21.913 12 21.913C9.3709 21.913 6.84948 20.8686 4.99042 19.0096C3.13136 17.1505 2.08696 14.6291 2.08696 12ZM12 0C5.37287 0 0 5.37287 0 12C0 18.6271 5.37287 24 12 24C18.6271 24 24 18.6271 24 12C24 5.37287 18.6271 0 12 0ZM10.9565 6.78261C10.9565 6.50586 11.0665 6.24045 11.2621 6.04476C11.4578 5.84907 11.7233 5.73913 12 5.73913C12.2767 5.73913 12.5422 5.84907 12.7379 6.04476C12.9335 6.24045 13.0435 6.50586 13.0435 6.78261V12H17.2174C17.4941 12 17.7596 12.1099 17.9552 12.3056C18.1509 12.5013 18.2609 12.7667 18.2609 13.0435C18.2609 13.3202 18.1509 13.5856 17.9552 13.7813C17.7596 13.977 17.4941 14.087 17.2174 14.087H12C11.7233 14.087 11.4578 13.977 11.2621 13.7813C11.0665 13.5856 10.9565 13.3202 10.9565 13.0435V6.78261Z" fill="currentColor"/>
	</symbol>
	<symbol id="social" fill="none" viewBox="0 0 24 24">
		<path fill-rule="evenodd" clip-rule="evenodd" d="M7.69648 1.76025C8.09281 1.28482 8.29165 0.771165 8.29165 0.221039C8.29165 0.148075 8.28829 0.0745198 8.28023 0.000976562C8.00414 0.0154549 7.71058 0.100002 7.40024 0.252884C7.08922 0.408081 6.83274 0.602633 6.63109 0.836613C6.22716 1.29873 5.99971 1.86393 5.99971 2.39205C5.99971 2.46504 6.00435 2.5345 6.01234 2.6005C6.63968 2.65203 7.21819 2.32544 7.69648 1.76025ZM10.3915 8.57332C10.2269 8.95763 10.0321 9.31138 9.80644 9.63662C9.49878 10.08 9.24688 10.3869 9.05274 10.5573C8.7518 10.8371 8.42936 10.9803 8.08408 10.9885C7.83621 10.9885 7.53728 10.9172 7.18932 10.7726C6.84021 10.6286 6.51938 10.5573 6.22603 10.5573C5.91837 10.5573 5.58841 10.6286 5.23547 10.7726C4.882 10.9172 4.59724 10.9926 4.37953 11C4.04842 11.0143 3.7184 10.867 3.38897 10.5573C3.17871 10.372 2.91572 10.0542 2.60067 9.60403C2.26265 9.1233 1.98475 8.56585 1.76704 7.93031C1.53387 7.24385 1.41699 6.57912 1.41699 5.93557C1.41699 5.19839 1.57458 4.56258 1.89023 4.02978C2.13831 3.60181 2.46834 3.26421 2.8814 3.01638C3.29446 2.76855 3.74076 2.64226 4.2214 2.63418C4.48439 2.63418 4.82927 2.7164 5.25784 2.878C5.68521 3.04015 5.95961 3.12237 6.07992 3.12237C6.16987 3.12237 6.47471 3.02623 6.99149 2.83455C7.48018 2.65679 7.89264 2.58318 8.23052 2.61218C9.14612 2.68687 9.83399 3.05169 10.2914 3.70895C9.47259 4.21046 9.06752 4.91287 9.07558 5.81396C9.08297 6.51584 9.33488 7.09991 9.82996 7.56366C10.0543 7.7789 10.3048 7.94525 10.5836 8.0634C10.5232 8.24061 10.4593 8.41036 10.3915 8.57332ZM13.0003 6.32098C13.0003 4.2845 13.0003 3.26628 13.6329 2.63363C14.2656 2.00098 15.2838 2.00098 17.3203 2.00098H17.6803C19.7168 2.00098 20.735 2.00098 21.3676 2.63363C22.0003 3.26628 22.0003 4.2845 22.0003 6.32098V6.68098C22.0003 8.71745 22.0003 9.73567 21.3676 10.3683C20.735 11.001 19.7168 11.001 17.6803 11.001H17.3203C15.2838 11.001 14.2656 11.001 13.6329 10.3683C13.0003 9.73567 13.0003 8.71745 13.0003 6.68098V6.32098ZM17.789 8.48475C15.7378 8.48475 14.5678 7.0785 14.5191 4.7385H15.5466C15.5803 6.456 16.3378 7.1835 16.9378 7.3335V4.7385H17.9053V6.21975C18.4978 6.156 19.1203 5.481 19.3303 4.7385H20.2978C20.1365 5.6535 19.4615 6.3285 18.9815 6.606C19.4615 6.831 20.2303 7.41975 20.5228 8.48475H19.4578C19.229 7.77225 18.6591 7.221 17.9053 7.146V8.48475H17.789ZM17.5002 13.001C18.592 13.001 19.5931 13.3899 20.3724 14.037L18.9147 15.2306C18.5045 14.9742 18.0197 14.8261 17.5002 14.8261C16.0231 14.8261 14.8252 16.0232 14.8252 17.5013C14.8254 18.9785 16.0229 20.1762 17.5001 20.1762C18.6474 20.1762 19.6256 19.4544 20.0054 18.4407H17.5992V16.6604H21.9215C22.0329 17.2472 22.026 17.8566 21.9017 18.4407C21.4506 20.5651 19.6903 22.001 17.5 22.001C15.0149 22.001 13.0003 19.9868 13.0003 17.5013C13.0003 15.0163 15.0146 13.001 17.5002 13.001ZM6.50032 13.001C8.9856 13.001 11.0003 15.0157 11.0003 17.501C11.0003 19.747 9.35474 21.6087 7.20344 21.9463V18.8018H8.25188L8.45149 17.501H7.20344V16.6572C7.20344 16.523 7.22821 16.3901 7.28899 16.2765C7.38952 16.0889 7.58849 15.9541 7.93671 15.9541H8.50413L8.50422 14.8467C8.50422 14.8467 7.9891 14.7588 7.49691 14.7588C7.3363 14.7588 7.18439 14.774 7.04237 14.804C7.00021 14.8129 6.95892 14.8231 6.91854 14.8345C6.22428 15.032 5.7971 15.6103 5.7971 16.5096V17.501H4.65461L4.65452 18.8018H5.7971V21.9463C3.64584 21.6087 2.00032 19.747 2.00032 17.501C2.00032 15.0157 4.01503 13.001 6.50032 13.001Z" fill="currentColor"/>
	</symbol>
	<symbol id="cross" fill="none" viewBox="0 0 20 20">
		<path fill-rule="evenodd" clip-rule="evenodd" d="M4.55876 4.55827C4.67595 4.44123 4.8348 4.37549 5.00043 4.37549C5.16605 4.37549 5.32491 4.44123 5.44209 4.55827L15.4421 14.5583C15.5035 14.6155 15.5528 14.6845 15.5869 14.7612C15.6211 14.8378 15.6394 14.9206 15.6409 15.0045C15.6424 15.0884 15.627 15.1718 15.5955 15.2496C15.5641 15.3274 15.5173 15.3981 15.458 15.4575C15.3986 15.5168 15.3279 15.5636 15.2501 15.595C15.1723 15.6265 15.0889 15.6419 15.005 15.6404C14.9211 15.6389 14.8383 15.6206 14.7616 15.5864C14.685 15.5523 14.616 15.503 14.5588 15.4416L4.55876 5.44161C4.44172 5.32442 4.37598 5.16556 4.37598 4.99994C4.37598 4.83431 4.44172 4.67546 4.55876 4.55827Z" fill="#040308"/>
		<path fill-rule="evenodd" clip-rule="evenodd" d="M15.4417 4.55827C15.5587 4.67546 15.6245 4.83431 15.6245 4.99994C15.6245 5.16556 15.5587 5.32442 15.4417 5.44161L5.4417 15.4416C5.32322 15.552 5.16652 15.6121 5.0046 15.6093C4.84268 15.6064 4.68819 15.5408 4.57368 15.4263C4.45917 15.3118 4.39358 15.1573 4.39072 14.9954C4.38787 14.8335 4.44797 14.6768 4.55837 14.5583L14.5584 4.55827C14.6756 4.44123 14.8344 4.37549 15 4.37549C15.1657 4.37549 15.3245 4.44123 15.4417 4.55827Z" fill="#040308"/>
	</symbol>
</svg>