<svg xmlns="http://www.w3.org/2000/svg">
	<symbol id="desktop" fill="none" viewBox="0 0 18 16">
		<path d="M14.8337 0.5H3.16699C2.50395 0.5 1.86807 0.763392 1.39923 1.23223C0.930384 1.70107 0.666992 2.33696 0.666992 3V9.66667C0.666992 10.3297 0.930384 10.9656 1.39923 11.4344C1.86807 11.9033 2.50395 12.1667 3.16699 12.1667H8.16699V13.8333H4.83366C4.61264 13.8333 4.40068 13.9211 4.2444 14.0774C4.08812 14.2337 4.00033 14.4457 4.00033 14.6667C4.00033 14.8877 4.08812 15.0996 4.2444 15.2559C4.40068 15.4122 4.61264 15.5 4.83366 15.5H13.167C13.388 15.5 13.6 15.4122 13.7562 15.2559C13.9125 15.0996 14.0003 14.8877 14.0003 14.6667C14.0003 14.4457 13.9125 14.2337 13.7562 14.0774C13.6 13.9211 13.388 13.8333 13.167 13.8333H9.83366V12.1667H14.8337C15.4967 12.1667 16.1326 11.9033 16.6014 11.4344C17.0703 10.9656 17.3337 10.3297 17.3337 9.66667V3C17.3337 2.33696 17.0703 1.70107 16.6014 1.23223C16.1326 0.763392 15.4967 0.5 14.8337 0.5ZM15.667 9.66667C15.667 9.88768 15.5792 10.0996 15.4229 10.2559C15.2666 10.4122 15.0547 10.5 14.8337 10.5H3.16699C2.94598 10.5 2.73402 10.4122 2.57774 10.2559C2.42146 10.0996 2.33366 9.88768 2.33366 9.66667V3C2.33366 2.77899 2.42146 2.56702 2.57774 2.41074C2.73402 2.25446 2.94598 2.16667 3.16699 2.16667H14.8337C15.0547 2.16667 15.2666 2.25446 15.4229 2.41074C15.5792 2.56702 15.667 2.77899 15.667 3V9.66667Z" fill="#040308"/>
	</symbol>
	<symbol id="mobile" fill="none" viewBox="0 0 12 18">
		<path d="M5.16699 13.7917H6.83366M3.29199 1.29175H8.70866C10.0894 1.29175 11.2087 2.41104 11.2087 3.79175V14.2084C11.2087 15.5891 10.0894 16.7084 8.70866 16.7084H3.29199C1.91128 16.7084 0.791992 15.5891 0.791992 14.2084V3.79175C0.791992 2.41104 1.91128 1.29175 3.29199 1.29175Z" stroke="#040308" stroke-width="1.5" stroke-linecap="round" stroke-linejoin="round"/>
	</symbol>
</svg>