<svg xmlns="http://www.w3.org/2000/svg">
	<symbol id="burger-menu" fill="none" viewBox="0 0 20 20">
		<path d="M2.5 5H17.5M2.5 10H17.5M2.5 15H17.5" stroke="#1E1E1E" stroke-width="2.08333" stroke-linecap="round" stroke-linejoin="round"/>
	</symbol>
	<symbol id="arrow-down" fill="none" viewBox="0 0 11 8">
		<path fill-rule="evenodd" clip-rule="evenodd" d="M5.10772 6.82414L0.393555 2.10997L1.57189 0.931641L5.69689 5.05664L9.82189 0.931641L11.0002 2.10997L6.28606 6.82414C6.12978 6.98037 5.91786 7.06813 5.69689 7.06813C5.47592 7.06813 5.26399 6.98037 5.10772 6.82414Z" fill="currentColor"/>
	</symbol>
	<symbol id="sign-out" fill="none" viewBox="0 0 25 24">
		<path fill-rule="evenodd" clip-rule="evenodd" d="M22.093 10.943C22.677 11.528 22.677 12.473 22.093 13.059L19.21 15.95C18.82 16.34 18.18 16.34 17.79 15.95C17.6973 15.8575 17.6237 15.7476 17.5736 15.6266C17.5234 15.5057 17.4976 15.376 17.4976 15.245C17.4976 15.114 17.5234 14.9843 17.5736 14.8634C17.6237 14.7424 17.6973 14.6325 17.79 14.54C18.3004 14.0293 18.867 13.5781 19.479 13.195L19.866 12.953L19.659 12.747C18.9243 12.9158 18.1729 13.001 17.419 13.001H9.498C9.23278 13.001 8.97843 12.8956 8.79089 12.7081C8.60336 12.5206 8.498 12.2662 8.498 12.001C8.498 11.7358 8.60336 11.4814 8.79089 11.2939C8.97843 11.1064 9.23278 11.001 9.498 11.001H17.419C18.1729 11.001 18.9243 11.0862 19.659 11.255L19.866 11.049L19.48 10.808C18.8675 10.424 18.3006 9.97177 17.79 9.46C17.6973 9.36749 17.6237 9.2576 17.5736 9.13662C17.5234 9.01565 17.4976 8.88597 17.4976 8.755C17.4976 8.62403 17.5234 8.49435 17.5736 8.37338C17.6237 8.2524 17.6973 8.14251 17.79 8.05C18.18 7.66 18.82 7.66 19.21 8.05L22.093 10.943ZM14.5 16C14.2348 16 13.9804 16.1054 13.7929 16.2929C13.6054 16.4804 13.5 16.7348 13.5 17V18.5C13.5 18.6326 13.4473 18.7598 13.3536 18.8536C13.2598 18.9473 13.1326 19 13 19H6C5.86739 19 5.74021 18.9473 5.64645 18.8536C5.55268 18.7598 5.5 18.6326 5.5 18.5V5.5C5.5 5.36739 5.55268 5.24021 5.64645 5.14645C5.74021 5.05268 5.86739 5 6 5H13C13.1326 5 13.2598 5.05268 13.3536 5.14645C13.4473 5.24021 13.5 5.36739 13.5 5.5V7.005C13.5 7.27022 13.6054 7.52457 13.7929 7.71211C13.9804 7.89964 14.2348 8.005 14.5 8.005C14.7652 8.005 15.0196 7.89964 15.2071 7.71211C15.3946 7.52457 15.5 7.27022 15.5 7.005V5.5C15.5 4.83696 15.2366 4.20107 14.7678 3.73223C14.2989 3.26339 13.663 3 13 3H6C5.33696 3 4.70107 3.26339 4.23223 3.73223C3.76339 4.20107 3.5 4.83696 3.5 5.5V18.5C3.5 19.163 3.76339 19.7989 4.23223 20.2678C4.70107 20.7366 5.33696 21 6 21H13C13.663 21 14.2989 20.7366 14.7678 20.2678C15.2366 19.7989 15.5 19.163 15.5 18.5V17C15.5 16.7348 15.3946 16.4804 15.2071 16.2929C15.0196 16.1054 14.7652 16 14.5 16Z" fill="currentColor"/>
	</symbol>
</svg>