<svg xmlns="http://www.w3.org/2000/svg">
	<symbol id="password-hide" fill="none" viewBox="0 0 19 20">
		<path d="M2.37493 2.875L5.21635 5.71642M16.6249 17.125L13.7838 14.2839M10.9842 15.4028C10.5035 15.494 10.0075 15.5417 9.50029 15.5417C5.95548 15.5417 2.95483 13.2119 1.94604 9.99997C2.22067 9.1256 2.64291 8.31661 3.18356 7.60219M7.82055 8.32062C8.25034 7.89083 8.84409 7.625 9.49993 7.625C10.8116 7.625 11.8749 8.68832 11.8749 10C11.8749 10.6558 11.6091 11.2496 11.1793 11.6794M7.82055 8.32062L11.1793 11.6794M7.82055 8.32062L5.21635 5.71642M11.1793 11.6794L5.21635 5.71642M11.1793 11.6794L13.7838 14.2839M5.21635 5.71642C6.45121 4.9203 7.92179 4.45833 9.50028 4.45833C13.0451 4.45833 16.0457 6.78814 17.0545 10C16.4949 11.7818 15.3223 13.2922 13.7838 14.2839" stroke="#040308" stroke-opacity="0.4" stroke-width="2" stroke-linecap="round" stroke-linejoin="round"/>
	</symbol>
	<symbol id="password-show" fill="none" viewBox="0 0 20 21">
		<path d="M1.71835 10.79C1.6489 10.6029 1.6489 10.3971 1.71835 10.21C2.39476 8.56987 3.54294 7.16753 5.01732 6.18074C6.4917 5.19396 8.22588 4.66718 10 4.66718C11.7741 4.66718 13.5083 5.19396 14.9827 6.18074C16.4571 7.16753 17.6053 8.56987 18.2817 10.21C18.3511 10.3971 18.3511 10.6029 18.2817 10.79C17.6053 12.4301 16.4571 13.8325 14.9827 14.8192C13.5083 15.806 11.7741 16.3328 10 16.3328C8.22588 16.3328 6.4917 15.806 5.01732 14.8192C3.54294 13.8325 2.39476 12.4301 1.71835 10.79Z" stroke="#040308" stroke-opacity="0.4" stroke-width="2" stroke-linecap="round" stroke-linejoin="round"/>
		<path d="M10 13C11.3807 13 12.5 11.8807 12.5 10.5C12.5 9.11929 11.3807 8 10 8C8.61929 8 7.5 9.11929 7.5 10.5C7.5 11.8807 8.61929 13 10 13Z" stroke="#040308" stroke-opacity="0.4" stroke-width="2" stroke-linecap="round" stroke-linejoin="round"/>
	</symbol>
</svg>	