<svg width="794" height="135" viewBox="0 0 794 135" fill="none" xmlns="http://www.w3.org/2000/svg"><path d="M59.81 132C52.9 110.512 37.842 66.57 34.666 62.711L41.724 0L66.427 71.043L59.81 132Z" fill="#3949AA"/><path d="M121.569 128.492L94.219 78.06L99.512 35.96L126.863 85.954L121.569 128.492Z" fill="#3949A9"/><path d="M99.512 35.96L91.372 104.129C89.471 120.027 75.913 132 59.81 132L66.87 65.181C68.624 48.571 82.712 35.96 99.512 35.96Z" fill="url(#paint0_linear_94_34)"/><path d="M0.116999 115.741L11.445 26.541C13.37 11.372 26.346 0 41.724 0L28.99 119.079C28.204 126.426 21.969 132 14.537 132C5.787 132 -0.979001 124.371 0.116999 115.741Z" fill="url(#paint1_linear_94_34)"/><path d="M127.884 77.225L121.569 128.492C139.578 128.492 154.634 114.881 156.342 97.059L157.931 80.476C158.776 71.655 151.798 64.026 142.885 64.026C135.249 64.026 128.812 69.689 127.884 77.225Z" fill="url(#paint2_linear_94_34)"/><path d="M607.24 81.832C607.496 81.832 607.624 81.96 607.624 82.088C607.752 83.752 607.752 85.416 607.752 87.208V90.024C607.624 92.968 607.24 95.784 606.728 98.472C606.344 100.264 605.832 102.184 605.32 103.976L604.936 105.256C598.664 123.176 583.176 133.288 562.312 133.288C544.776 133.288 528.648 122.92 521.224 106.792L520.712 105.512C518.152 99.752 517 93.48 517 87.208C517 61.736 537.352 41 562.312 41C582.664 41 596.872 49.064 603.528 64.424C603.656 64.68 603.528 64.808 603.4 64.936L586.504 73.128C586.376 73.256 586.248 73.256 586.248 73.128C586.12 73.128 586.12 73.128 585.992 73C582.152 64.424 574.216 59.816 562.952 59.816C548.744 59.816 537.096 72.104 537.096 87.208C537.096 102.184 548.744 114.472 562.952 114.472C574.6 114.472 583.048 108.84 586.76 98.728H555.784C555.656 98.728 555.528 98.6 555.528 98.6C555.4 98.472 555.4 98.344 555.528 98.216L563.464 81.96C563.464 81.832 563.592 81.832 563.72 81.832H607.24ZM704.24 82.832C704.496 82.832 704.624 82.96 704.624 83.088C704.752 84.752 704.752 86.416 704.752 88.208V91.024C704.624 93.968 704.24 96.784 703.728 99.472C703.344 101.264 702.832 103.184 702.32 104.976L701.936 106.256C695.664 124.176 680.176 134.288 659.312 134.288C641.776 134.288 625.648 123.92 618.224 107.792L617.712 106.512C615.152 100.752 614 94.48 614 88.208C614 62.736 634.352 42 659.312 42C679.664 42 693.872 50.064 700.528 65.424C700.656 65.68 700.528 65.808 700.4 65.936L683.504 74.128C683.376 74.256 683.248 74.256 683.248 74.128C683.12 74.128 683.12 74.128 682.992 74C679.152 65.424 671.216 60.816 659.952 60.816C645.744 60.816 634.096 73.104 634.096 88.208C634.096 103.184 645.744 115.472 659.952 115.472C671.6 115.472 680.048 109.84 683.76 99.728H652.784C652.656 99.728 652.528 99.6 652.528 99.6C652.4 99.472 652.4 99.344 652.528 99.216L660.464 82.96C660.464 82.832 660.592 82.832 660.72 82.832H704.24ZM287.76 86.8L312.336 131.088C312.464 131.088 312.464 131.216 312.336 131.344C312.336 131.472 312.08 131.6 312.08 131.6H290.32C290.254 131.596 290.191 131.567 290.144 131.52C290.097 131.473 290.068 131.41 290.064 131.344L276.496 107.024L262.928 131.344C262.924 131.41 262.895 131.473 262.848 131.52C262.801 131.567 262.738 131.596 262.672 131.6H242.96C242.704 131.6 242.576 131.344 242.576 131.216V50.832L238.096 42.384C237.968 42.384 237.968 42.256 238.096 42.128C238.096 42 238.224 42 238.352 42H261.776C262.032 42 262.16 42.128 262.16 42.256V92.304L290.064 42.128C290.064 42 290.192 42 290.32 42H312.08C312.208 42 312.336 42 312.336 42.128C312.336 42.256 312.464 42.384 312.336 42.512L287.76 86.8ZM351.912 131.344L317.096 42.384C316.968 42.256 316.968 42.128 317.096 42.128C317.096 42 317.224 42 317.352 42H336.936C337.064 42 337.192 42 337.192 42.128L361.256 103.44L372.52 74.768L359.848 42.384V42.128C359.976 42 359.976 42 360.104 42H379.688C379.816 42 379.944 42 379.944 42.128L388.648 64.4L404.008 103.44L428.072 42.128C428.072 42 428.2 42 428.328 42H447.912C447.912 42 448.04 42 448.168 42.128V42.384L413.352 131.344C413.352 131.472 413.224 131.6 412.968 131.6H394.92V131.472H394.664V131.344L382.632 100.624L370.6 131.344C370.472 131.472 370.344 131.6 370.216 131.6H352.168V131.472H351.912V131.344ZM482.6 42.128L517.416 131.088V131.344C517.288 131.472 517.16 131.472 517.032 131.472H497.576C497.448 131.472 497.32 131.472 497.192 131.344L490.408 113.936H455.976L449.192 131.344C449.188 131.41 449.159 131.473 449.112 131.52C449.065 131.567 449.002 131.596 448.936 131.6H429.352C429.286 131.596 429.223 131.567 429.176 131.52C429.129 131.473 429.1 131.41 429.096 131.344C428.968 131.344 428.968 131.216 429.096 131.088L459.944 52.368L454.568 42.384C454.44 42.384 454.44 42.256 454.568 42.128C454.568 42 454.696 42 454.824 42H482.216C482.344 42 482.472 42 482.6 42.128ZM473.256 70.032L462.888 96.4H483.624L473.256 70.032ZM758.6 42.128L793.416 131.088V131.344C793.288 131.472 793.16 131.472 793.032 131.472H773.576C773.448 131.472 773.32 131.472 773.192 131.344L766.408 113.936H731.976L725.192 131.344C725.188 131.41 725.159 131.473 725.112 131.52C725.065 131.567 725.002 131.596 724.936 131.6H705.352C705.286 131.596 705.223 131.567 705.176 131.52C705.129 131.473 705.1 131.41 705.096 131.344C704.968 131.344 704.968 131.216 705.096 131.088L735.944 52.368L730.568 42.384C730.44 42.384 730.44 42.256 730.568 42.128C730.568 42 730.696 42 730.824 42H758.216C758.344 42 758.472 42 758.6 42.128ZM749.256 70.032L738.888 96.4H759.624L749.256 70.032Z" fill="black"/><defs><linearGradient id="paint0_linear_94_34" x1="10432.3" y1="-50.2811" x2="10432.3" y2="139.214" gradientUnits="userSpaceOnUse"><stop stop-color="#6DC1F3"/><stop offset="1" stop-color="#F41CA9"/></linearGradient><linearGradient id="paint1_linear_94_34" x1="13563.6" y1="-3.35612e-07" x2="13563.5" y2="138.909" gradientUnits="userSpaceOnUse"><stop stop-color="#6EC0F3"/><stop offset="1" stop-color="#F718A8"/></linearGradient><linearGradient id="paint2_linear_94_34" x1="13445.6" y1="2.31222" x2="13445.4" y2="140.349" gradientUnits="userSpaceOnUse"><stop stop-color="#F021AB"/><stop offset="1" stop-color="#74B9EF"/></linearGradient></defs></svg>
