<svg width="158" height="132" viewBox="0 0 158 132" fill="none" xmlns="http://www.w3.org/2000/svg">
<path d="M59.8105 132C52.8994 110.512 37.8421 66.5701 34.6659 62.711L41.724 0L66.4274 71.0432L59.8105 132Z" fill="#3949AA"/>
<path d="M121.569 128.492L94.2188 78.0598L99.5124 35.9601L126.863 85.9535L121.569 128.492Z" fill="#3949A9"/>
<path d="M99.5124 35.9601L91.3714 104.129C89.4729 120.027 75.9141 132 59.8105 132L66.8694 65.1815C68.6242 48.5715 82.7122 35.9601 99.5124 35.9601Z" fill="url(#paint0_linear_28_46)"/>
<path d="M0.116639 115.741L11.4445 26.5402C13.3706 11.3734 26.3464 0 41.724 0L28.9896 119.079C28.2039 126.426 21.969 132 14.5366 132C5.78704 132 -0.979261 124.371 0.116639 115.741Z" fill="url(#paint1_linear_28_46)"/>
<path d="M127.884 77.2251L121.569 128.492C139.578 128.492 154.634 114.881 156.342 97.0592L157.931 80.4757C158.776 71.6549 151.798 64.0266 142.885 64.0266C135.249 64.0266 128.812 69.6897 127.884 77.2251Z" fill="url(#paint2_linear_28_46)"/>
<defs>
<linearGradient id="paint0_linear_28_46" x1="115.867" y1="-2.05975e-07" x2="111.486" y2="133.07" gradientUnits="userSpaceOnUse">
<stop stop-color="#6DC1F3"/>
<stop offset="1" stop-color="#F41CA9"/>
</linearGradient>
<linearGradient id="paint1_linear_28_46" x1="142.04" y1="-6.89036e-07" x2="137.268" y2="134.046" gradientUnits="userSpaceOnUse">
<stop stop-color="#6EC0F3"/>
<stop offset="1" stop-color="#F718A8"/>
</linearGradient>
<linearGradient id="paint2_linear_28_46" x1="147.155" y1="64.0266" x2="140.615" y2="128.499" gradientUnits="userSpaceOnUse">
<stop stop-color="#F021AB"/>
<stop offset="1" stop-color="#74B9EF"/>
</linearGradient>
</defs>
</svg>
