<svg width="20" height="20" fill="none" xmlns="http://www.w3.org/2000/svg"><g clip-path="url(#a)"><path d="M19.315 10.219c0-.646-.053-1.295-.164-1.93H10.19v3.658h5.131a4.398 4.398 0 0 1-1.899 2.887v2.373h3.062c1.797-1.654 2.83-4.098 2.83-6.988Z" fill="#4285F4"/><path d="M10.19 19.5c2.562 0 4.723-.84 6.297-2.293l-3.061-2.373c-.852.579-1.951.907-3.232.907-2.479 0-4.58-1.672-5.334-3.92H1.7v2.447a9.501 9.501 0 0 0 8.49 5.233Z" fill="#34A853"/><path d="M4.856 11.821a5.69 5.69 0 0 1 0-3.637V5.737H1.701a9.508 9.508 0 0 0 0 8.531l3.155-2.447Z" fill="#FBBC04"/><path d="M10.19 4.26a5.162 5.162 0 0 1 3.644 1.424l2.713-2.712A9.13 9.13 0 0 0 10.19.501 9.498 9.498 0 0 0 1.7 5.737l3.156 2.447c.75-2.252 2.856-3.924 5.334-3.924Z" fill="#EA4335"/></g><defs><clipPath id="a"><path fill="#fff" transform="translate(.5 .5)" d="M0 0h19v19H0z"/></clipPath></defs></svg>