<svg width="1078" height="1078" viewBox="0 0 1078 1078" fill="none" xmlns="http://www.w3.org/2000/svg"><path d="M539 1077.9C836.626 1077.9 1077.9 836.626 1077.9 539C1077.9 241.374 836.626 0.0999756 539 0.0999756C241.373 0.0999756 0.0996094 241.374 0.0996094 539C0.0996094 836.626 241.373 1077.9 539 1077.9Z" fill="#FC3F1D"/><path d="M734 877.3H615.7V292.2H563C466.4 292.2 415.8 340.5 415.8 412.6C415.8 494.4 450.7 532.3 522.9 580.6L582.4 620.7L411.4 877.2H284.2L438.1 648.2C349.6 585 299.8 523.3 299.8 419.2C299.8 289.1 390.5 200.6 562.2 200.6H733.2V877.1H734V877.3Z" fill="white"/></svg>